<svg width="33" height="33" viewBox="0 0 33 33" fill="none" xmlns="http://www.w3.org/2000/svg">
<path d="M16.5 18.81L21.285 23.595C21.5875 23.8975 21.9725 24.0487 22.44 24.0487C22.9075 24.0487 23.2925 23.8975 23.595 23.595C23.8975 23.2925 24.0487 22.9075 24.0487 22.44C24.0487 21.9725 23.8975 21.5875 23.595 21.285L18.81 16.5L23.595 11.715C23.8975 11.4125 24.0487 11.0275 24.0487 10.56C24.0487 10.0925 23.8975 9.7075 23.595 9.405C23.2925 9.1025 22.9075 8.95125 22.44 8.95125C21.9725 8.95125 21.5875 9.1025 21.285 9.405L16.5 14.19L11.715 9.405C11.4125 9.1025 11.0275 8.95125 10.56 8.95125C10.0925 8.95125 9.7075 9.1025 9.405 9.405C9.1025 9.7075 8.95125 10.0925 8.95125 10.56C8.95125 11.0275 9.1025 11.4125 9.405 11.715L14.19 16.5L9.405 21.285C9.1025 21.5875 8.95125 21.9725 8.95125 22.44C8.95125 22.9075 9.1025 23.2925 9.405 23.595C9.7075 23.8975 10.0925 24.0487 10.56 24.0487C11.0275 24.0487 11.4125 23.8975 11.715 23.595L16.5 18.81ZM16.5 33C14.2175 33 12.0725 32.5666 10.065 31.6998C8.0575 30.833 6.31125 29.6576 4.82625 28.1737C3.34125 26.6898 2.1659 24.9436 1.3002 22.935C0.434502 20.9264 0.00110209 18.7814 2.08861e-06 16.5C-0.00109791 14.2186 0.432302 12.0736 1.3002 10.065C2.1681 8.0564 3.34345 6.31015 4.82625 4.82625C6.30905 3.34235 8.0553 2.167 10.065 1.3002C12.0747 0.4334 14.2197 0 16.5 0C18.7803 0 20.9253 0.4334 22.935 1.3002C24.9447 2.167 26.6909 3.34235 28.1737 4.82625C29.6565 6.31015 30.8324 8.0564 31.7014 10.065C32.5704 12.0736 33.0033 14.2186 33 16.5C32.9967 18.7814 32.5633 20.9264 31.6998 22.935C30.8363 24.9436 29.6609 26.6898 28.1737 28.1737C26.6865 29.6576 24.9403 30.8335 22.935 31.7014C20.9297 32.5693 18.7847 33.0022 16.5 33ZM16.5 29.7C20.185 29.7 23.3062 28.4212 25.8637 25.8637C28.4212 23.3062 29.7 20.185 29.7 16.5C29.7 12.815 28.4212 9.69375 25.8637 7.13625C23.3062 4.57875 20.185 3.3 16.5 3.3C12.815 3.3 9.69375 4.57875 7.13625 7.13625C4.57875 9.69375 3.3 12.815 3.3 16.5C3.3 20.185 4.57875 23.3062 7.13625 25.8637C9.69375 28.4212 12.815 29.7 16.5 29.7Z" fill="#142F64"/>
</svg>
